<svg xmlns="http://www.w3.org/2000/svg" width="1280" height="720" viewBox="0 0 1280 720" role="img" aria-label="Analytics Preview">
  <rect width="1280" height="720" fill="#0a0e1a"/>
  <rect x="60" y="60" width="560" height="280" rx="16" fill="#151d2e" stroke="#2d3f5f"/>
  <rect x="660" y="60" width="560" height="280" rx="16" fill="#151d2e" stroke="#2d3f5f"/>
  <rect x="60" y="380" width="560" height="280" rx="16" fill="#151d2e" stroke="#2d3f5f"/>
  <rect x="660" y="380" width="560" height="280" rx="16" fill="#151d2e" stroke="#2d3f5f"/>
  <rect x="120" y="250" width="50" height="60" fill="#3b82f6"/>
  <rect x="190" y="210" width="50" height="100" fill="#f59e0b"/>
  <rect x="260" y="170" width="50" height="140" fill="#10b981"/>
  <rect x="330" y="220" width="50" height="90" fill="#8b5cf6"/>
  <circle cx="940" cy="200" r="90" fill="#3b82f6"/>
  <path d="M940 200 L940 110 A90 90 0 0 1 1018 245 Z" fill="#10b981"/>
  <path d="M940 200 L1018 245 A90 90 0 0 1 890 277 Z" fill="#f59e0b"/>
  <text x="90" y="110" fill="#f1f5f9" font-family="Arial, sans-serif" font-size="30" font-weight="700">Analytics Overview</text>
  <text x="90" y="145" fill="#94a3b8" font-family="Arial, sans-serif" font-size="18">Preview illustration for README</text>
</svg>
